<svg version="1.1" viewBox="0.0 0.0 725.2965879265092 593.3333333333334" fill="none" stroke="none" stroke-linecap="square" stroke-miterlimit="10" xmlns:xlink="http://www.w3.org/1999/xlink" xmlns="http://www.w3.org/2000/svg"><clipPath id="p.0"><path d="m0 0l725.2966 0l0 593.3333l-725.2966 0l0 -593.3333z" clip-rule="nonzero"/></clipPath><g clip-path="url(#p.0)"><path fill="#000000" fill-opacity="0.0" d="m0 0l725.2966 0l0 593.3333l-725.2966 0z" fill-rule="evenodd"/><path fill="#cc0000" d="m14.84252 204.93964l12.095472 0l0 193.52756l-12.095472 0zm24.190947 0l24.190945 0l0 193.52756l-24.190945 0zm36.28642 0l432.32578 0l0 -96.76379l193.52756 193.52756l-193.52756 193.52756l0 -96.76376l-432.32578 0z" fill-rule="evenodd"/><path stroke="#000000" stroke-width="4.0" stroke-linejoin="round" stroke-linecap="butt" d="m14.84252 204.93964l12.095472 0l0 193.52756l-12.095472 0zm24.190947 0l24.190945 0l0 193.52756l-24.190945 0zm36.28642 0l432.32578 0l0 -96.76379l193.52756 193.52756l-193.52756 193.52756l0 -96.76376l-432.32578 0z" fill-rule="evenodd"/></g></svg>